<svg xmlns="http://www.w3.org/2000/svg" viewBox="0 0 17.79 21.83"><defs><style>.a{fill:#2a81ba;}.b{font-size:8px;fill:#fff;font-family:Oswald;}</style></defs><title>Go</title><path class="a" d="M317,221.73a2.77,2.77,0,0,1-2.76-2.76,0.51,0.51,0,0,0-.47-0.54h-14v0.74a0.42,0.42,0,0,1,.22-0.06,0.4,0.4,0,0,1,.43.37,0.41,0.41,0,0,1,0,.07v0.54l0,0a0.43,0.43,0,0,1-.42.43h0a0.39,0.39,0,0,1-.22-0.05v1.47a0.42,0.42,0,0,1,.21-0.06h0a0.4,0.4,0,0,1,.43.37,0.39,0.39,0,0,1,0,.07v0.54a0.43,0.43,0,0,1-.42.43h0a0.39,0.39,0,0,1-.22-0.05v1.49a0.42,0.42,0,0,1,.21-0.06h0a0.4,0.4,0,0,1,.43.37,0.39,0.39,0,0,1,0,.07v0.52a0.43,0.43,0,0,1-.42.43h0a0.39,0.39,0,0,1-.22-0.05v1.47a0.42,0.42,0,0,1,.21-0.06h0a0.4,0.4,0,0,1,.43.37,0.39,0.39,0,0,1,0,.07v0.54a0.43,0.43,0,0,1-.42.43h0a0.39,0.39,0,0,1-.22-0.05v1.47a0.42,0.42,0,0,1,.21-0.06h0a0.4,0.4,0,0,1,.43.37,0.39,0.39,0,0,1,0,.07v0.54a0.43,0.43,0,0,1-.42.43h0a0.39,0.39,0,0,1-.22-0.05v1.47a0.42,0.42,0,0,1,.21-0.06h0a0.4,0.4,0,0,1,.43.37,0.39,0.39,0,0,1,0,.07v0.54a0.43,0.43,0,0,1-.42.43h0a0.39,0.39,0,0,1-.22-0.05v1.47a0.42,0.42,0,0,1,.21-0.06h0a0.4,0.4,0,0,1,.43.37,0.39,0.39,0,0,1,0,.07v0.54a0.43,0.43,0,0,1-.42.43h0a0.39,0.39,0,0,1-.22-0.05v1.47a0.42,0.42,0,0,1,.21-0.06h0a0.4,0.4,0,0,1,.43.37,0.39,0.39,0,0,1,0,.07v0.54a0.43,0.43,0,0,1-.42.43h0a0.39,0.39,0,0,1-.22-0.05v0.51h14a0.51,0.51,0,0,0,.54-0.54A2.77,2.77,0,0,1,317,237a0.51,0.51,0,0,0,.54-0.54V222.27A0.58,0.58,0,0,0,317,221.73Z" transform="translate(-299.79 -218.43)"/><text class="b" transform="translate(3.16 14.97)">GO!</text></svg>