<svg xmlns="http://www.w3.org/2000/svg" viewBox="0 0 87.2 40.3"><defs><style>.a{fill:#2980b9;}.b,.c{isolation:isolate;}.c{font-size:12px;fill:#fff;font-family:Oswald;}</style></defs><title>Ryoko</title><path class="a" d="M88,8.86a5.12,5.12,0,0,1-5.1-5.1,0.94,0.94,0,0,0-.88-1H8.95a0.94,0.94,0,0,0-1,1,5.12,5.12,0,0,1-5.1,5.1,0.94,0.94,0,0,0-1,1V36a0.94,0.94,0,0,0,.88,1H2.85a5.12,5.12,0,0,1,5.1,5.1,0.94,0.94,0,0,0,.88,1H81.95a0.94,0.94,0,0,0,1-1A5.12,5.12,0,0,1,88,37a0.94,0.94,0,0,0,1-1V9.86A1.08,1.08,0,0,0,88,8.86Zm-30.7,32.6a0.79,0.79,0,0,1-.78.8h0a0.74,0.74,0,0,1-.8-0.8v-1a0.79,0.79,0,0,1,.78-0.8h0a0.74,0.74,0,0,1,.8.8v1Zm0-5.1a0.79,0.79,0,0,1-.78.8h0a0.74,0.74,0,0,1-.8-0.8v-1a0.79,0.79,0,0,1,.78-0.8h0a0.74,0.74,0,0,1,.8.8v1Zm0-5.1a0.79,0.79,0,0,1-.78.8h0a0.74,0.74,0,0,1-.8-0.8v-1a0.79,0.79,0,0,1,.78-0.8h0a0.74,0.74,0,0,1,.8.8v1Zm0-5.1a0.79,0.79,0,0,1-.78.8h0a0.74,0.74,0,0,1-.8-0.8v-1a0.79,0.79,0,0,1,.78-0.8h0a0.74,0.74,0,0,1,.8.8v1Zm0-5.1a0.79,0.79,0,0,1-.78.8h0a0.74,0.74,0,0,1-.8-0.8v-1a0.79,0.79,0,0,1,.78-0.8h0a0.74,0.74,0,0,1,.8.8v1Zm0-5.1a0.79,0.79,0,0,1-.78.8h0a0.74,0.74,0,0,1-.8-0.8V15a0.79,0.79,0,0,1,.78-0.8h0a0.74,0.74,0,0,1,.8.8v1Zm0-5.1a0.79,0.79,0,0,1-.78.8h0a0.74,0.74,0,0,1-.8-0.8v-1a0.79,0.79,0,0,1,.78-0.8h0a0.74,0.74,0,0,1,.8.8v1Zm0-5.1a0.79,0.79,0,0,1-.78.8h0a0.74,0.74,0,0,1-.8-0.8v-1A0.79,0.79,0,0,1,56.53,4h0a0.74,0.74,0,0,1,.8.8v1ZM80,18l-3.8,3.4,1,7.8a0.48,0.48,0,0,1-.2.5l-0.7.7a0.29,0.29,0,0,1-.5-0.1l-1.5-3-0.4.4a0.48,0.48,0,0,1-.68,0l0,0h0a0.48,0.48,0,0,1,0-.68l0,0,0.7-.7-1-2-3.3,2.9,0.2,2a0.73,0.73,0,0,1-.2.6l-0.1.1a0.29,0.29,0,0,1-.5-0.1l-1.2-2-2-1.2a0.35,0.35,0,0,1-.11-0.48v0l0.1-.1a1.07,1.07,0,0,1,.6-0.2l2,0.2,2.9-3.3-2-1-0.7.7a0.49,0.49,0,0,1-.7-0.7l0.4-.4-3-1.5c-0.2-.1-0.3-0.4-0.1-0.5l0.7-.7a0.76,0.76,0,0,1,.5-0.2l7.8,1,3.4-3.8a1.3,1.3,0,0,1,1.3-.5,1.54,1.54,0,0,1,1.5,1.5A1.24,1.24,0,0,1,80,18Z" transform="translate(-1.85 -2.76)"/><g class="b"><text class="c" transform="translate(13.41 24.96)">R</text><text class="c" transform="translate(19.9 24.96)">y</text><text class="c" transform="translate(24.92 24.96)">okō</text></g></svg>