<svg xmlns="http://www.w3.org/2000/svg" viewBox="0 0 63.13 60.76"><title>spinner</title><path d="M28.23,44a3.62,3.62,0,1,0-1,5l0,0a3.6,3.6,0,0,0,1-5h0ZM24.16,29.66a3.62,3.62,0,1,0-3.77,3.46h0a3.6,3.6,0,0,0,3.74-3.45h0Zm5.23-14.11a3.62,3.62,0,1,0-5.09.57l0,0a3.6,3.6,0,0,0,5.06-.59h0ZM41.92,7.1a3.62,3.62,0,1,0-4.45-2.53v0A3.6,3.6,0,0,0,41.92,7.1Zm15,0.44A3.62,3.62,0,1,0,54.8,2.88v0a3.6,3.6,0,0,0,2.16,4.61l0.05,0H56.92ZM68,17.21a5.43,5.43,0,1,0,1.55-7.52l0,0A5.4,5.4,0,0,0,68,17.21h0Zm4.82,13.87a3.62,3.62,0,1,0,3.77-3.46h0a3.6,3.6,0,0,0-3.73,3.46h0ZM67.61,45.19a3.62,3.62,0,1,0,5.09-.57l0,0a3.6,3.6,0,0,0-5.06.59h0ZM55.08,53.64a3.62,3.62,0,1,0,4.45,2.53v0A3.6,3.6,0,0,0,55.08,53.64Zm-15-.44a3.62,3.62,0,1,0,2.08,4.68v0a3.6,3.6,0,0,0-2.1-4.64L40,53.2h0.08Z" transform="translate(-16.92 0.01)"/></svg>